<?xml version="1.0" encoding="utf-8" standalone="no"?>
<!DOCTYPE svg PUBLIC "-//W3C//DTD SVG 1.1//EN"
  "http://www.w3.org/Graphics/SVG/1.1/DTD/svg11.dtd">
<svg xmlns:xlink="http://www.w3.org/1999/xlink" width="224.108281pt" height="162.372812pt" viewBox="0 0 224.108281 162.372812" xmlns="http://www.w3.org/2000/svg" version="1.1">
 <metadata>
  <rdf:RDF xmlns:dc="http://purl.org/dc/elements/1.1/" xmlns:cc="http://creativecommons.org/ns#" xmlns:rdf="http://www.w3.org/1999/02/22-rdf-syntax-ns#">
   <cc:Work>
    <dc:type rdf:resource="http://purl.org/dc/dcmitype/StillImage"/>
    <dc:date>2026-03-30T00:07:40.326573</dc:date>
    <dc:format>image/svg+xml</dc:format>
    <dc:creator>
     <cc:Agent>
      <dc:title>Matplotlib v3.7.5, https://matplotlib.org/</dc:title>
     </cc:Agent>
    </dc:creator>
   </cc:Work>
  </rdf:RDF>
 </metadata>
 <defs>
  <style type="text/css">*{stroke-linejoin: round; stroke-linecap: butt}</style>
 </defs>
 <g id="figure_1">
  <g id="patch_1">
   <path d="M 0 162.372812 
L 224.108281 162.372812 
L 224.108281 0 
L 0 0 
z
" style="fill: #ffffff"/>
  </g>
  <g id="axes_1">
   <g id="patch_2">
    <path d="M 25.028281 134.82 
L 220.508281 134.82 
L 220.508281 3.6 
L 25.028281 3.6 
z
" style="fill: #ffffff"/>
   </g>
   <g id="matplotlib.axis_1">
    <g id="xtick_1">
     <g id="line2d_1">
      <path d="M 33.913736 134.82 
L 33.913736 3.6 
" clip-path="url(#p5a2a472709)" style="fill: none; stroke-dasharray: 1.85,0.8; stroke-dashoffset: 0; stroke: #b0b0b0; stroke-opacity: 0.3; stroke-width: 0.5"/>
     </g>
     <g id="line2d_2">
      <defs>
       <path id="md3129a2fe0" d="M 0 0 
L 0 -3.5 
" style="stroke: #000000; stroke-width: 0.8"/>
      </defs>
      <g>
       <use xlink:href="#md3129a2fe0" x="33.913736" y="134.82" style="stroke: #000000; stroke-width: 0.8"/>
      </g>
     </g>
     <g id="text_1">
      <!-- 16 -->
      <g transform="translate(28.823736 144.39875) scale(0.08 -0.08)">
       <defs>
        <path id="DejaVuSerif-31" d="M 909 0 
L 909 331 
L 1722 331 
L 1722 4213 
L 781 3603 
L 781 4013 
L 1919 4750 
L 2350 4750 
L 2350 331 
L 3163 331 
L 3163 0 
L 909 0 
z
" transform="scale(0.015625)"/>
        <path id="DejaVuSerif-36" d="M 2094 219 
Q 2534 219 2771 542 
Q 3009 866 3009 1472 
Q 3009 2078 2771 2401 
Q 2534 2725 2094 2725 
Q 1647 2725 1412 2412 
Q 1178 2100 1178 1509 
Q 1178 888 1415 553 
Q 1653 219 2094 219 
z
M 1075 2569 
Q 1288 2803 1556 2918 
Q 1825 3034 2163 3034 
Q 2859 3034 3264 2615 
Q 3669 2197 3669 1472 
Q 3669 763 3233 336 
Q 2797 -91 2069 -91 
Q 1278 -91 853 498 
Q 428 1088 428 2181 
Q 428 3406 931 4078 
Q 1434 4750 2350 4750 
Q 2597 4750 2869 4703 
Q 3141 4656 3425 4563 
L 3425 3794 
L 3072 3794 
Q 3034 4109 2831 4275 
Q 2628 4441 2284 4441 
Q 1678 4441 1381 3981 
Q 1084 3522 1075 2569 
z
" transform="scale(0.015625)"/>
       </defs>
       <use xlink:href="#DejaVuSerif-31"/>
       <use xlink:href="#DejaVuSerif-36" x="63.623047"/>
      </g>
     </g>
    </g>
    <g id="xtick_2">
     <g id="line2d_3">
      <path d="M 69.455554 134.82 
L 69.455554 3.6 
" clip-path="url(#p5a2a472709)" style="fill: none; stroke-dasharray: 1.85,0.8; stroke-dashoffset: 0; stroke: #b0b0b0; stroke-opacity: 0.3; stroke-width: 0.5"/>
     </g>
     <g id="line2d_4">
      <g>
       <use xlink:href="#md3129a2fe0" x="69.455554" y="134.82" style="stroke: #000000; stroke-width: 0.8"/>
      </g>
     </g>
     <g id="text_2">
      <!-- 17 -->
      <g transform="translate(64.365554 144.39875) scale(0.08 -0.08)">
       <defs>
        <path id="DejaVuSerif-37" d="M 3609 4347 
L 1784 0 
L 1319 0 
L 3059 4153 
L 903 4153 
L 903 3578 
L 538 3578 
L 538 4666 
L 3609 4666 
L 3609 4347 
z
" transform="scale(0.015625)"/>
       </defs>
       <use xlink:href="#DejaVuSerif-31"/>
       <use xlink:href="#DejaVuSerif-37" x="63.623047"/>
      </g>
     </g>
    </g>
    <g id="xtick_3">
     <g id="line2d_5">
      <path d="M 104.997372 134.82 
L 104.997372 3.6 
" clip-path="url(#p5a2a472709)" style="fill: none; stroke-dasharray: 1.85,0.8; stroke-dashoffset: 0; stroke: #b0b0b0; stroke-opacity: 0.3; stroke-width: 0.5"/>
     </g>
     <g id="line2d_6">
      <g>
       <use xlink:href="#md3129a2fe0" x="104.997372" y="134.82" style="stroke: #000000; stroke-width: 0.8"/>
      </g>
     </g>
     <g id="text_3">
      <!-- 18 -->
      <g transform="translate(99.907372 144.39875) scale(0.08 -0.08)">
       <defs>
        <path id="DejaVuSerif-38" d="M 2981 1275 
Q 2981 1775 2732 2051 
Q 2484 2328 2034 2328 
Q 1584 2328 1336 2051 
Q 1088 1775 1088 1275 
Q 1088 772 1336 495 
Q 1584 219 2034 219 
Q 2484 219 2732 495 
Q 2981 772 2981 1275 
z
M 2853 3541 
Q 2853 3966 2637 4203 
Q 2422 4441 2034 4441 
Q 1650 4441 1433 4203 
Q 1216 3966 1216 3541 
Q 1216 3113 1433 2875 
Q 1650 2638 2034 2638 
Q 2422 2638 2637 2875 
Q 2853 3113 2853 3541 
z
M 2516 2484 
Q 3047 2413 3344 2092 
Q 3641 1772 3641 1275 
Q 3641 619 3225 264 
Q 2809 -91 2034 -91 
Q 1263 -91 845 264 
Q 428 619 428 1275 
Q 428 1772 725 2092 
Q 1022 2413 1556 2484 
Q 1084 2569 832 2842 
Q 581 3116 581 3541 
Q 581 4103 968 4426 
Q 1356 4750 2034 4750 
Q 2713 4750 3100 4426 
Q 3488 4103 3488 3541 
Q 3488 3116 3236 2842 
Q 2984 2569 2516 2484 
z
" transform="scale(0.015625)"/>
       </defs>
       <use xlink:href="#DejaVuSerif-31"/>
       <use xlink:href="#DejaVuSerif-38" x="63.623047"/>
      </g>
     </g>
    </g>
    <g id="xtick_4">
     <g id="line2d_7">
      <path d="M 140.53919 134.82 
L 140.53919 3.6 
" clip-path="url(#p5a2a472709)" style="fill: none; stroke-dasharray: 1.85,0.8; stroke-dashoffset: 0; stroke: #b0b0b0; stroke-opacity: 0.3; stroke-width: 0.5"/>
     </g>
     <g id="line2d_8">
      <g>
       <use xlink:href="#md3129a2fe0" x="140.53919" y="134.82" style="stroke: #000000; stroke-width: 0.8"/>
      </g>
     </g>
     <g id="text_4">
      <!-- 19 -->
      <g transform="translate(135.44919 144.39875) scale(0.08 -0.08)">
       <defs>
        <path id="DejaVuSerif-39" d="M 2994 2091 
Q 2784 1856 2512 1740 
Q 2241 1625 1900 1625 
Q 1206 1625 804 2044 
Q 403 2463 403 3188 
Q 403 3897 839 4323 
Q 1275 4750 2003 4750 
Q 2794 4750 3217 4161 
Q 3641 3572 3641 2478 
Q 3641 1253 3137 581 
Q 2634 -91 1722 -91 
Q 1475 -91 1203 -44 
Q 931 3 647 97 
L 647 872 
L 997 872 
Q 1038 556 1241 387 
Q 1444 219 1784 219 
Q 2391 219 2687 676 
Q 2984 1134 2994 2091 
z
M 1978 4441 
Q 1534 4441 1298 4117 
Q 1063 3794 1063 3188 
Q 1063 2581 1298 2256 
Q 1534 1931 1978 1931 
Q 2422 1931 2658 2245 
Q 2894 2559 2894 3150 
Q 2894 3772 2656 4106 
Q 2419 4441 1978 4441 
z
" transform="scale(0.015625)"/>
       </defs>
       <use xlink:href="#DejaVuSerif-31"/>
       <use xlink:href="#DejaVuSerif-39" x="63.623047"/>
      </g>
     </g>
    </g>
    <g id="xtick_5">
     <g id="line2d_9">
      <path d="M 176.081009 134.82 
L 176.081009 3.6 
" clip-path="url(#p5a2a472709)" style="fill: none; stroke-dasharray: 1.85,0.8; stroke-dashoffset: 0; stroke: #b0b0b0; stroke-opacity: 0.3; stroke-width: 0.5"/>
     </g>
     <g id="line2d_10">
      <g>
       <use xlink:href="#md3129a2fe0" x="176.081009" y="134.82" style="stroke: #000000; stroke-width: 0.8"/>
      </g>
     </g>
     <g id="text_5">
      <!-- 20 -->
      <g transform="translate(170.991009 144.39875) scale(0.08 -0.08)">
       <defs>
        <path id="DejaVuSerif-32" d="M 819 3553 
L 469 3553 
L 469 4384 
Q 803 4563 1142 4656 
Q 1481 4750 1806 4750 
Q 2534 4750 2956 4397 
Q 3378 4044 3378 3438 
Q 3378 2753 2422 1800 
Q 2347 1728 2309 1691 
L 1131 513 
L 3078 513 
L 3078 1088 
L 3444 1088 
L 3444 0 
L 434 0 
L 434 341 
L 1850 1753 
Q 2319 2222 2519 2614 
Q 2719 3006 2719 3438 
Q 2719 3909 2473 4175 
Q 2228 4441 1797 4441 
Q 1350 4441 1106 4219 
Q 863 3997 819 3553 
z
" transform="scale(0.015625)"/>
        <path id="DejaVuSerif-30" d="M 2034 219 
Q 2513 219 2750 744 
Q 2988 1269 2988 2328 
Q 2988 3391 2750 3916 
Q 2513 4441 2034 4441 
Q 1556 4441 1318 3916 
Q 1081 3391 1081 2328 
Q 1081 1269 1318 744 
Q 1556 219 2034 219 
z
M 2034 -91 
Q 1275 -91 848 546 
Q 422 1184 422 2328 
Q 422 3475 848 4112 
Q 1275 4750 2034 4750 
Q 2797 4750 3222 4112 
Q 3647 3475 3647 2328 
Q 3647 1184 3222 546 
Q 2797 -91 2034 -91 
z
" transform="scale(0.015625)"/>
       </defs>
       <use xlink:href="#DejaVuSerif-32"/>
       <use xlink:href="#DejaVuSerif-30" x="63.623047"/>
      </g>
     </g>
    </g>
    <g id="xtick_6">
     <g id="line2d_11">
      <path d="M 211.622827 134.82 
L 211.622827 3.6 
" clip-path="url(#p5a2a472709)" style="fill: none; stroke-dasharray: 1.85,0.8; stroke-dashoffset: 0; stroke: #b0b0b0; stroke-opacity: 0.3; stroke-width: 0.5"/>
     </g>
     <g id="line2d_12">
      <g>
       <use xlink:href="#md3129a2fe0" x="211.622827" y="134.82" style="stroke: #000000; stroke-width: 0.8"/>
      </g>
     </g>
     <g id="text_6">
      <!-- 21 -->
      <g transform="translate(206.532827 144.39875) scale(0.08 -0.08)">
       <use xlink:href="#DejaVuSerif-32"/>
       <use xlink:href="#DejaVuSerif-31" x="63.623047"/>
      </g>
     </g>
    </g>
    <g id="text_7">
     <!-- Layer -->
     <g style="fill: #333333" transform="translate(109.740078 156.773125) scale(0.09 -0.09)">
      <defs>
       <path id="DejaVuSerif-4c" d="M 353 0 
L 353 331 
L 947 331 
L 947 4331 
L 353 4331 
L 353 4666 
L 2175 4666 
L 2175 4331 
L 1581 4331 
L 1581 384 
L 3713 384 
L 3713 1166 
L 4097 1166 
L 4097 0 
L 353 0 
z
" transform="scale(0.015625)"/>
       <path id="DejaVuSerif-61" d="M 2547 1044 
L 2547 1747 
L 1806 1747 
Q 1378 1747 1168 1562 
Q 959 1378 959 997 
Q 959 650 1171 447 
Q 1384 244 1747 244 
Q 2106 244 2326 466 
Q 2547 688 2547 1044 
z
M 3122 2075 
L 3122 331 
L 3634 331 
L 3634 0 
L 2547 0 
L 2547 359 
Q 2356 128 2106 18 
Q 1856 -91 1522 -91 
Q 969 -91 644 203 
Q 319 497 319 997 
Q 319 1513 691 1797 
Q 1063 2081 1741 2081 
L 2547 2081 
L 2547 2309 
Q 2547 2688 2317 2895 
Q 2088 3103 1672 3103 
Q 1328 3103 1125 2947 
Q 922 2791 872 2484 
L 575 2484 
L 575 3156 
Q 875 3284 1158 3348 
Q 1441 3413 1709 3413 
Q 2400 3413 2761 3070 
Q 3122 2728 3122 2075 
z
" transform="scale(0.015625)"/>
       <path id="DejaVuSerif-79" d="M 1381 -609 
L 1600 -56 
L 359 2988 
L -19 2988 
L -19 3322 
L 1509 3322 
L 1509 2988 
L 978 2988 
L 1913 703 
L 2847 2988 
L 2350 2988 
L 2350 3322 
L 3597 3322 
L 3597 2988 
L 3225 2988 
L 1703 -750 
Q 1547 -1138 1356 -1280 
Q 1166 -1422 819 -1422 
Q 672 -1422 517 -1397 
Q 363 -1372 206 -1325 
L 206 -691 
L 500 -691 
Q 519 -903 608 -995 
Q 697 -1088 884 -1088 
Q 1056 -1088 1161 -992 
Q 1266 -897 1381 -609 
z
" transform="scale(0.015625)"/>
       <path id="DejaVuSerif-65" d="M 3469 1600 
L 991 1600 
L 991 1575 
Q 991 903 1244 561 
Q 1497 219 1991 219 
Q 2369 219 2611 417 
Q 2853 616 2950 1006 
L 3413 1006 
Q 3275 459 2904 184 
Q 2534 -91 1931 -91 
Q 1203 -91 761 389 
Q 319 869 319 1663 
Q 319 2450 753 2931 
Q 1188 3413 1894 3413 
Q 2647 3413 3050 2948 
Q 3453 2484 3469 1600 
z
M 2791 1931 
Q 2772 2513 2545 2808 
Q 2319 3103 1894 3103 
Q 1497 3103 1269 2806 
Q 1041 2509 991 1931 
L 2791 1931 
z
" transform="scale(0.015625)"/>
       <path id="DejaVuSerif-72" d="M 3059 3328 
L 3059 2497 
L 2728 2497 
Q 2713 2744 2591 2866 
Q 2469 2988 2234 2988 
Q 1809 2988 1582 2694 
Q 1356 2400 1356 1850 
L 1356 331 
L 2022 331 
L 2022 0 
L 263 0 
L 263 331 
L 781 331 
L 781 2994 
L 231 2994 
L 231 3322 
L 1356 3322 
L 1356 2731 
Q 1525 3078 1790 3245 
Q 2056 3413 2438 3413 
Q 2578 3413 2733 3391 
Q 2888 3369 3059 3328 
z
" transform="scale(0.015625)"/>
      </defs>
      <use xlink:href="#DejaVuSerif-4c"/>
      <use xlink:href="#DejaVuSerif-61" x="66.40625"/>
      <use xlink:href="#DejaVuSerif-79" x="126.025391"/>
      <use xlink:href="#DejaVuSerif-65" x="182.519531"/>
      <use xlink:href="#DejaVuSerif-72" x="241.699219"/>
     </g>
    </g>
   </g>
   <g id="matplotlib.axis_2">
    <g id="ytick_1">
     <g id="line2d_13">
      <path d="M 25.028281 128.855455 
L 220.508281 128.855455 
" clip-path="url(#p5a2a472709)" style="fill: none; stroke-dasharray: 1.85,0.8; stroke-dashoffset: 0; stroke: #b0b0b0; stroke-opacity: 0.3; stroke-width: 0.5"/>
     </g>
     <g id="line2d_14">
      <defs>
       <path id="m3909700832" d="M 0 0 
L 3.5 0 
" style="stroke: #000000; stroke-width: 0.8"/>
      </defs>
      <g>
       <use xlink:href="#m3909700832" x="25.028281" y="128.855455" style="stroke: #000000; stroke-width: 0.8"/>
      </g>
     </g>
     <g id="text_8">
      <!-- 1 -->
      <g transform="translate(16.438281 131.89483) scale(0.08 -0.08)">
       <use xlink:href="#DejaVuSerif-31"/>
      </g>
     </g>
    </g>
    <g id="ytick_2">
     <g id="line2d_15">
      <path d="M 25.028281 110.853614 
L 220.508281 110.853614 
" clip-path="url(#p5a2a472709)" style="fill: none; stroke-dasharray: 1.85,0.8; stroke-dashoffset: 0; stroke: #b0b0b0; stroke-opacity: 0.3; stroke-width: 0.5"/>
     </g>
     <g id="line2d_16">
      <g>
       <use xlink:href="#m3909700832" x="25.028281" y="110.853614" style="stroke: #000000; stroke-width: 0.8"/>
      </g>
     </g>
     <g id="text_9">
      <!-- 2 -->
      <g transform="translate(16.438281 113.892989) scale(0.08 -0.08)">
       <use xlink:href="#DejaVuSerif-32"/>
      </g>
     </g>
    </g>
    <g id="ytick_3">
     <g id="line2d_17">
      <path d="M 25.028281 92.851774 
L 220.508281 92.851774 
" clip-path="url(#p5a2a472709)" style="fill: none; stroke-dasharray: 1.85,0.8; stroke-dashoffset: 0; stroke: #b0b0b0; stroke-opacity: 0.3; stroke-width: 0.5"/>
     </g>
     <g id="line2d_18">
      <g>
       <use xlink:href="#m3909700832" x="25.028281" y="92.851774" style="stroke: #000000; stroke-width: 0.8"/>
      </g>
     </g>
     <g id="text_10">
      <!-- 3 -->
      <g transform="translate(16.438281 95.891149) scale(0.08 -0.08)">
       <defs>
        <path id="DejaVuSerif-33" d="M 622 4469 
Q 988 4606 1323 4678 
Q 1659 4750 1953 4750 
Q 2638 4750 3022 4454 
Q 3406 4159 3406 3634 
Q 3406 3213 3140 2930 
Q 2875 2647 2388 2547 
Q 2963 2466 3280 2130 
Q 3597 1794 3597 1259 
Q 3597 606 3158 257 
Q 2719 -91 1894 -91 
Q 1528 -91 1179 -12 
Q 831 66 488 225 
L 488 1131 
L 838 1131 
Q 869 681 1141 450 
Q 1413 219 1906 219 
Q 2384 219 2661 495 
Q 2938 772 2938 1253 
Q 2938 1803 2653 2086 
Q 2369 2369 1819 2369 
L 1522 2369 
L 1522 2688 
L 1678 2688 
Q 2225 2688 2498 2914 
Q 2772 3141 2772 3597 
Q 2772 4006 2547 4223 
Q 2322 4441 1900 4441 
Q 1478 4441 1245 4241 
Q 1013 4041 972 3647 
L 622 3647 
L 622 4469 
z
" transform="scale(0.015625)"/>
       </defs>
       <use xlink:href="#DejaVuSerif-33"/>
      </g>
     </g>
    </g>
    <g id="ytick_4">
     <g id="line2d_19">
      <path d="M 25.028281 74.849934 
L 220.508281 74.849934 
" clip-path="url(#p5a2a472709)" style="fill: none; stroke-dasharray: 1.85,0.8; stroke-dashoffset: 0; stroke: #b0b0b0; stroke-opacity: 0.3; stroke-width: 0.5"/>
     </g>
     <g id="line2d_20">
      <g>
       <use xlink:href="#m3909700832" x="25.028281" y="74.849934" style="stroke: #000000; stroke-width: 0.8"/>
      </g>
     </g>
     <g id="text_11">
      <!-- 4 -->
      <g transform="translate(16.438281 77.889309) scale(0.08 -0.08)">
       <defs>
        <path id="DejaVuSerif-34" d="M 2234 1581 
L 2234 4063 
L 641 1581 
L 2234 1581 
z
M 3609 0 
L 1484 0 
L 1484 331 
L 2234 331 
L 2234 1247 
L 197 1247 
L 197 1588 
L 2241 4750 
L 2859 4750 
L 2859 1581 
L 3750 1581 
L 3750 1247 
L 2859 1247 
L 2859 331 
L 3609 331 
L 3609 0 
z
" transform="scale(0.015625)"/>
       </defs>
       <use xlink:href="#DejaVuSerif-34"/>
      </g>
     </g>
    </g>
    <g id="ytick_5">
     <g id="line2d_21">
      <path d="M 25.028281 56.848093 
L 220.508281 56.848093 
" clip-path="url(#p5a2a472709)" style="fill: none; stroke-dasharray: 1.85,0.8; stroke-dashoffset: 0; stroke: #b0b0b0; stroke-opacity: 0.3; stroke-width: 0.5"/>
     </g>
     <g id="line2d_22">
      <g>
       <use xlink:href="#m3909700832" x="25.028281" y="56.848093" style="stroke: #000000; stroke-width: 0.8"/>
      </g>
     </g>
     <g id="text_12">
      <!-- 5 -->
      <g transform="translate(16.438281 59.887468) scale(0.08 -0.08)">
       <defs>
        <path id="DejaVuSerif-35" d="M 3219 4666 
L 3219 4153 
L 1081 4153 
L 1081 2816 
Q 1244 2928 1461 2984 
Q 1678 3041 1947 3041 
Q 2703 3041 3140 2622 
Q 3578 2203 3578 1478 
Q 3578 738 3136 323 
Q 2694 -91 1894 -91 
Q 1572 -91 1234 -12 
Q 897 66 544 225 
L 544 1131 
L 897 1131 
Q 925 688 1179 453 
Q 1434 219 1894 219 
Q 2388 219 2653 544 
Q 2919 869 2919 1478 
Q 2919 2084 2655 2407 
Q 2391 2731 1894 2731 
Q 1613 2731 1398 2631 
Q 1184 2531 1019 2322 
L 750 2322 
L 750 4666 
L 3219 4666 
z
" transform="scale(0.015625)"/>
       </defs>
       <use xlink:href="#DejaVuSerif-35"/>
      </g>
     </g>
    </g>
    <g id="ytick_6">
     <g id="line2d_23">
      <path d="M 25.028281 38.846253 
L 220.508281 38.846253 
" clip-path="url(#p5a2a472709)" style="fill: none; stroke-dasharray: 1.85,0.8; stroke-dashoffset: 0; stroke: #b0b0b0; stroke-opacity: 0.3; stroke-width: 0.5"/>
     </g>
     <g id="line2d_24">
      <g>
       <use xlink:href="#m3909700832" x="25.028281" y="38.846253" style="stroke: #000000; stroke-width: 0.8"/>
      </g>
     </g>
     <g id="text_13">
      <!-- 6 -->
      <g transform="translate(16.438281 41.885628) scale(0.08 -0.08)">
       <use xlink:href="#DejaVuSerif-36"/>
      </g>
     </g>
    </g>
    <g id="ytick_7">
     <g id="line2d_25">
      <path d="M 25.028281 20.844413 
L 220.508281 20.844413 
" clip-path="url(#p5a2a472709)" style="fill: none; stroke-dasharray: 1.85,0.8; stroke-dashoffset: 0; stroke: #b0b0b0; stroke-opacity: 0.3; stroke-width: 0.5"/>
     </g>
     <g id="line2d_26">
      <g>
       <use xlink:href="#m3909700832" x="25.028281" y="20.844413" style="stroke: #000000; stroke-width: 0.8"/>
      </g>
     </g>
     <g id="text_14">
      <!-- 7 -->
      <g transform="translate(16.438281 23.883788) scale(0.08 -0.08)">
       <use xlink:href="#DejaVuSerif-37"/>
      </g>
     </g>
    </g>
    <g id="text_15">
     <!-- Deep Thinking Trend -->
     <g style="fill: #333333" transform="translate(10.438594 117.663047) rotate(-90) scale(0.09 -0.09)">
      <defs>
       <path id="DejaVuSerif-44" d="M 1581 331 
L 2163 331 
Q 3072 331 3558 850 
Q 4044 1369 4044 2338 
Q 4044 3306 3559 3818 
Q 3075 4331 2163 4331 
L 1581 4331 
L 1581 331 
z
M 353 0 
L 353 331 
L 947 331 
L 947 4331 
L 353 4331 
L 353 4666 
L 2209 4666 
Q 3416 4666 4089 4050 
Q 4763 3434 4763 2338 
Q 4763 1238 4088 619 
Q 3413 0 2209 0 
L 353 0 
z
" transform="scale(0.015625)"/>
       <path id="DejaVuSerif-70" d="M 1313 1825 
L 1313 1497 
Q 1313 897 1542 583 
Q 1772 269 2209 269 
Q 2650 269 2876 622 
Q 3103 975 3103 1663 
Q 3103 2353 2876 2703 
Q 2650 3053 2209 3053 
Q 1772 3053 1542 2737 
Q 1313 2422 1313 1825 
z
M 738 2988 
L 184 2988 
L 184 3322 
L 1313 3322 
L 1313 2803 
Q 1481 3116 1742 3264 
Q 2003 3413 2388 3413 
Q 3000 3413 3387 2928 
Q 3775 2444 3775 1663 
Q 3775 881 3387 395 
Q 3000 -91 2388 -91 
Q 2003 -91 1742 57 
Q 1481 206 1313 519 
L 1313 -997 
L 1856 -997 
L 1856 -1331 
L 184 -1331 
L 184 -997 
L 738 -997 
L 738 2988 
z
" transform="scale(0.015625)"/>
       <path id="DejaVuSerif-20" transform="scale(0.015625)"/>
       <path id="DejaVuSerif-54" d="M 1222 0 
L 1222 331 
L 1819 331 
L 1819 4294 
L 447 4294 
L 447 3566 
L 63 3566 
L 63 4666 
L 4206 4666 
L 4206 3566 
L 3822 3566 
L 3822 4294 
L 2450 4294 
L 2450 331 
L 3047 331 
L 3047 0 
L 1222 0 
z
" transform="scale(0.015625)"/>
       <path id="DejaVuSerif-68" d="M 263 0 
L 263 331 
L 781 331 
L 781 4531 
L 231 4531 
L 231 4863 
L 1356 4863 
L 1356 2731 
Q 1516 3069 1770 3241 
Q 2025 3413 2363 3413 
Q 2913 3413 3172 3097 
Q 3431 2781 3431 2113 
L 3431 331 
L 3944 331 
L 3944 0 
L 2356 0 
L 2356 331 
L 2853 331 
L 2853 1931 
Q 2853 2541 2704 2764 
Q 2556 2988 2175 2988 
Q 1775 2988 1565 2697 
Q 1356 2406 1356 1850 
L 1356 331 
L 1856 331 
L 1856 0 
L 263 0 
z
" transform="scale(0.015625)"/>
       <path id="DejaVuSerif-69" d="M 622 4353 
Q 622 4497 726 4603 
Q 831 4709 978 4709 
Q 1122 4709 1226 4603 
Q 1331 4497 1331 4353 
Q 1331 4206 1228 4103 
Q 1125 4000 978 4000 
Q 831 4000 726 4103 
Q 622 4206 622 4353 
z
M 1356 331 
L 1900 331 
L 1900 0 
L 231 0 
L 231 331 
L 781 331 
L 781 2988 
L 231 2988 
L 231 3322 
L 1356 3322 
L 1356 331 
z
" transform="scale(0.015625)"/>
       <path id="DejaVuSerif-6e" d="M 263 0 
L 263 331 
L 781 331 
L 781 2988 
L 231 2988 
L 231 3322 
L 1356 3322 
L 1356 2731 
Q 1516 3069 1770 3241 
Q 2025 3413 2363 3413 
Q 2913 3413 3172 3097 
Q 3431 2781 3431 2113 
L 3431 331 
L 3944 331 
L 3944 0 
L 2356 0 
L 2356 331 
L 2853 331 
L 2853 1931 
Q 2853 2541 2703 2767 
Q 2553 2994 2175 2994 
Q 1775 2994 1565 2701 
Q 1356 2409 1356 1850 
L 1356 331 
L 1856 331 
L 1856 0 
L 263 0 
z
" transform="scale(0.015625)"/>
       <path id="DejaVuSerif-6b" d="M 1831 0 
L 219 0 
L 219 331 
L 738 331 
L 738 4531 
L 184 4531 
L 184 4863 
L 1313 4863 
L 1313 1697 
L 2713 2988 
L 2234 2988 
L 2234 3322 
L 3738 3322 
L 3738 2988 
L 3169 2988 
L 2181 2075 
L 3444 331 
L 3922 331 
L 3922 0 
L 2284 0 
L 2284 331 
L 2759 331 
L 1766 1697 
L 1313 1275 
L 1313 331 
L 1831 331 
L 1831 0 
z
" transform="scale(0.015625)"/>
       <path id="DejaVuSerif-67" d="M 3359 2988 
L 3359 72 
Q 3359 -644 2965 -1033 
Q 2572 -1422 1844 -1422 
Q 1516 -1422 1216 -1362 
Q 916 -1303 641 -1184 
L 641 -488 
L 941 -488 
Q 997 -813 1206 -963 
Q 1416 -1113 1806 -1113 
Q 2313 -1113 2548 -827 
Q 2784 -541 2784 72 
L 2784 519 
Q 2616 206 2355 57 
Q 2094 -91 1709 -91 
Q 1097 -91 708 395 
Q 319 881 319 1663 
Q 319 2444 706 2928 
Q 1094 3413 1709 3413 
Q 2094 3413 2355 3264 
Q 2616 3116 2784 2803 
L 2784 3322 
L 3909 3322 
L 3909 2988 
L 3359 2988 
z
M 2784 1825 
Q 2784 2422 2554 2737 
Q 2325 3053 1888 3053 
Q 1444 3053 1217 2703 
Q 991 2353 991 1663 
Q 991 975 1217 622 
Q 1444 269 1888 269 
Q 2325 269 2554 583 
Q 2784 897 2784 1497 
L 2784 1825 
z
" transform="scale(0.015625)"/>
       <path id="DejaVuSerif-64" d="M 3359 331 
L 3909 331 
L 3909 0 
L 2784 0 
L 2784 519 
Q 2616 206 2355 57 
Q 2094 -91 1709 -91 
Q 1097 -91 708 395 
Q 319 881 319 1663 
Q 319 2444 706 2928 
Q 1094 3413 1709 3413 
Q 2094 3413 2355 3264 
Q 2616 3116 2784 2803 
L 2784 4531 
L 2241 4531 
L 2241 4863 
L 3359 4863 
L 3359 331 
z
M 2784 1497 
L 2784 1825 
Q 2784 2422 2554 2737 
Q 2325 3053 1888 3053 
Q 1444 3053 1217 2703 
Q 991 2353 991 1663 
Q 991 975 1217 622 
Q 1444 269 1888 269 
Q 2325 269 2554 583 
Q 2784 897 2784 1497 
z
" transform="scale(0.015625)"/>
      </defs>
      <use xlink:href="#DejaVuSerif-44"/>
      <use xlink:href="#DejaVuSerif-65" x="80.175781"/>
      <use xlink:href="#DejaVuSerif-65" x="139.355469"/>
      <use xlink:href="#DejaVuSerif-70" x="198.535156"/>
      <use xlink:href="#DejaVuSerif-20" x="262.548828"/>
      <use xlink:href="#DejaVuSerif-54" x="294.335938"/>
      <use xlink:href="#DejaVuSerif-68" x="361.035156"/>
      <use xlink:href="#DejaVuSerif-69" x="425.439453"/>
      <use xlink:href="#DejaVuSerif-6e" x="457.421875"/>
      <use xlink:href="#DejaVuSerif-6b" x="521.826172"/>
      <use xlink:href="#DejaVuSerif-69" x="582.421875"/>
      <use xlink:href="#DejaVuSerif-6e" x="614.404297"/>
      <use xlink:href="#DejaVuSerif-67" x="678.808594"/>
      <use xlink:href="#DejaVuSerif-20" x="742.822266"/>
      <use xlink:href="#DejaVuSerif-54" x="774.609375"/>
      <use xlink:href="#DejaVuSerif-72" x="841.308594"/>
      <use xlink:href="#DejaVuSerif-65" x="889.111328"/>
      <use xlink:href="#DejaVuSerif-6e" x="948.291016"/>
      <use xlink:href="#DejaVuSerif-64" x="1012.695312"/>
     </g>
    </g>
   </g>
   <g id="line2d_27">
    <path d="M 33.913736 107.758965 
L 69.455554 112.334487 
L 104.997372 102.90101 
L 140.53919 113.986179 
L 176.081009 94.770912 
L 211.622827 86.162755 
" clip-path="url(#p5a2a472709)" style="fill: none; stroke: #00bd54; stroke-opacity: 0.9; stroke-width: 1.2; stroke-linecap: square"/>
    <defs>
     <path id="mf78ac06f68" d="M 0 -1.75 
L -1.75 1.75 
L 1.75 1.75 
z
" style="stroke: #00bd54; stroke-opacity: 0.9; stroke-linejoin: miter"/>
    </defs>
    <g clip-path="url(#p5a2a472709)">
     <use xlink:href="#mf78ac06f68" x="33.913736" y="107.758965" style="fill: #00bd54; fill-opacity: 0.9; stroke: #00bd54; stroke-opacity: 0.9; stroke-linejoin: miter"/>
     <use xlink:href="#mf78ac06f68" x="69.455554" y="112.334487" style="fill: #00bd54; fill-opacity: 0.9; stroke: #00bd54; stroke-opacity: 0.9; stroke-linejoin: miter"/>
     <use xlink:href="#mf78ac06f68" x="104.997372" y="102.90101" style="fill: #00bd54; fill-opacity: 0.9; stroke: #00bd54; stroke-opacity: 0.9; stroke-linejoin: miter"/>
     <use xlink:href="#mf78ac06f68" x="140.53919" y="113.986179" style="fill: #00bd54; fill-opacity: 0.9; stroke: #00bd54; stroke-opacity: 0.9; stroke-linejoin: miter"/>
     <use xlink:href="#mf78ac06f68" x="176.081009" y="94.770912" style="fill: #00bd54; fill-opacity: 0.9; stroke: #00bd54; stroke-opacity: 0.9; stroke-linejoin: miter"/>
     <use xlink:href="#mf78ac06f68" x="211.622827" y="86.162755" style="fill: #00bd54; fill-opacity: 0.9; stroke: #00bd54; stroke-opacity: 0.9; stroke-linejoin: miter"/>
    </g>
   </g>
   <g id="line2d_28">
    <path d="M 33.913736 99.701588 
L 69.455554 105.896109 
L 104.997372 101.288117 
L 140.53919 108.433803 
L 176.081009 83.168761 
L 211.622827 76.129453 
" clip-path="url(#p5a2a472709)" style="fill: none; stroke: #21c56a; stroke-opacity: 0.9; stroke-width: 1.2; stroke-linecap: square"/>
    <defs>
     <path id="m2c591d5336" d="M 0 -1.75 
L -1.75 1.75 
L 1.75 1.75 
z
" style="stroke: #21c56a; stroke-opacity: 0.9; stroke-linejoin: miter"/>
    </defs>
    <g clip-path="url(#p5a2a472709)">
     <use xlink:href="#m2c591d5336" x="33.913736" y="99.701588" style="fill: #21c56a; fill-opacity: 0.9; stroke: #21c56a; stroke-opacity: 0.9; stroke-linejoin: miter"/>
     <use xlink:href="#m2c591d5336" x="69.455554" y="105.896109" style="fill: #21c56a; fill-opacity: 0.9; stroke: #21c56a; stroke-opacity: 0.9; stroke-linejoin: miter"/>
     <use xlink:href="#m2c591d5336" x="104.997372" y="101.288117" style="fill: #21c56a; fill-opacity: 0.9; stroke: #21c56a; stroke-opacity: 0.9; stroke-linejoin: miter"/>
     <use xlink:href="#m2c591d5336" x="140.53919" y="108.433803" style="fill: #21c56a; fill-opacity: 0.9; stroke: #21c56a; stroke-opacity: 0.9; stroke-linejoin: miter"/>
     <use xlink:href="#m2c591d5336" x="176.081009" y="83.168761" style="fill: #21c56a; fill-opacity: 0.9; stroke: #21c56a; stroke-opacity: 0.9; stroke-linejoin: miter"/>
     <use xlink:href="#m2c591d5336" x="211.622827" y="76.129453" style="fill: #21c56a; fill-opacity: 0.9; stroke: #21c56a; stroke-opacity: 0.9; stroke-linejoin: miter"/>
    </g>
   </g>
   <g id="line2d_29">
    <path d="M 33.913736 92.235352 
L 69.455554 101.028738 
L 104.997372 99.870673 
L 140.53919 102.626666 
L 176.081009 66.747811 
L 211.622827 63.098538 
" clip-path="url(#p5a2a472709)" style="fill: none; stroke: #72daa0; stroke-opacity: 0.9; stroke-width: 1.2; stroke-linecap: square"/>
    <defs>
     <path id="mc9300f93ab" d="M 0 -1.75 
L -1.75 1.75 
L 1.75 1.75 
z
" style="stroke: #72daa0; stroke-opacity: 0.9; stroke-linejoin: miter"/>
    </defs>
    <g clip-path="url(#p5a2a472709)">
     <use xlink:href="#mc9300f93ab" x="33.913736" y="92.235352" style="fill: #72daa0; fill-opacity: 0.9; stroke: #72daa0; stroke-opacity: 0.9; stroke-linejoin: miter"/>
     <use xlink:href="#mc9300f93ab" x="69.455554" y="101.028738" style="fill: #72daa0; fill-opacity: 0.9; stroke: #72daa0; stroke-opacity: 0.9; stroke-linejoin: miter"/>
     <use xlink:href="#mc9300f93ab" x="104.997372" y="99.870673" style="fill: #72daa0; fill-opacity: 0.9; stroke: #72daa0; stroke-opacity: 0.9; stroke-linejoin: miter"/>
     <use xlink:href="#mc9300f93ab" x="140.53919" y="102.626666" style="fill: #72daa0; fill-opacity: 0.9; stroke: #72daa0; stroke-opacity: 0.9; stroke-linejoin: miter"/>
     <use xlink:href="#mc9300f93ab" x="176.081009" y="66.747811" style="fill: #72daa0; fill-opacity: 0.9; stroke: #72daa0; stroke-opacity: 0.9; stroke-linejoin: miter"/>
     <use xlink:href="#mc9300f93ab" x="211.622827" y="63.098538" style="fill: #72daa0; fill-opacity: 0.9; stroke: #72daa0; stroke-opacity: 0.9; stroke-linejoin: miter"/>
    </g>
   </g>
   <g id="line2d_30">
    <path d="M 33.913736 79.842338 
L 69.455554 93.37896 
L 104.997372 96.948782 
L 140.53919 89.056568 
L 176.081009 31.324174 
L 211.622827 36.437529 
" clip-path="url(#p5a2a472709)" style="fill: none; stroke: #fcb97c; stroke-opacity: 0.9; stroke-width: 1.2; stroke-linecap: square"/>
    <defs>
     <path id="m20b878c74c" d="M -1.75 1.75 
L 1.75 1.75 
L 1.75 -1.75 
L -1.75 -1.75 
z
" style="stroke: #fcb97c; stroke-opacity: 0.9; stroke-linejoin: miter"/>
    </defs>
    <g clip-path="url(#p5a2a472709)">
     <use xlink:href="#m20b878c74c" x="33.913736" y="79.842338" style="fill: #fcb97c; fill-opacity: 0.9; stroke: #fcb97c; stroke-opacity: 0.9; stroke-linejoin: miter"/>
     <use xlink:href="#m20b878c74c" x="69.455554" y="93.37896" style="fill: #fcb97c; fill-opacity: 0.9; stroke: #fcb97c; stroke-opacity: 0.9; stroke-linejoin: miter"/>
     <use xlink:href="#m20b878c74c" x="104.997372" y="96.948782" style="fill: #fcb97c; fill-opacity: 0.9; stroke: #fcb97c; stroke-opacity: 0.9; stroke-linejoin: miter"/>
     <use xlink:href="#m20b878c74c" x="140.53919" y="89.056568" style="fill: #fcb97c; fill-opacity: 0.9; stroke: #fcb97c; stroke-opacity: 0.9; stroke-linejoin: miter"/>
     <use xlink:href="#m20b878c74c" x="176.081009" y="31.324174" style="fill: #fcb97c; fill-opacity: 0.9; stroke: #fcb97c; stroke-opacity: 0.9; stroke-linejoin: miter"/>
     <use xlink:href="#m20b878c74c" x="211.622827" y="36.437529" style="fill: #fcb97c; fill-opacity: 0.9; stroke: #fcb97c; stroke-opacity: 0.9; stroke-linejoin: miter"/>
    </g>
   </g>
   <g id="line2d_31">
    <path d="M 33.913736 73.352118 
L 69.455554 91.023858 
L 104.997372 96.371405 
L 140.53919 83.518438 
L 176.081009 19.763417 
L 211.622827 22.525877 
" clip-path="url(#p5a2a472709)" style="fill: none; stroke: #fa9131; stroke-opacity: 0.9; stroke-width: 1.2; stroke-linecap: square"/>
    <defs>
     <path id="m93aca1c39e" d="M -1.75 1.75 
L 1.75 1.75 
L 1.75 -1.75 
L -1.75 -1.75 
z
" style="stroke: #fa9131; stroke-opacity: 0.9; stroke-linejoin: miter"/>
    </defs>
    <g clip-path="url(#p5a2a472709)">
     <use xlink:href="#m93aca1c39e" x="33.913736" y="73.352118" style="fill: #fa9131; fill-opacity: 0.9; stroke: #fa9131; stroke-opacity: 0.9; stroke-linejoin: miter"/>
     <use xlink:href="#m93aca1c39e" x="69.455554" y="91.023858" style="fill: #fa9131; fill-opacity: 0.9; stroke: #fa9131; stroke-opacity: 0.9; stroke-linejoin: miter"/>
     <use xlink:href="#m93aca1c39e" x="104.997372" y="96.371405" style="fill: #fa9131; fill-opacity: 0.9; stroke: #fa9131; stroke-opacity: 0.9; stroke-linejoin: miter"/>
     <use xlink:href="#m93aca1c39e" x="140.53919" y="83.518438" style="fill: #fa9131; fill-opacity: 0.9; stroke: #fa9131; stroke-opacity: 0.9; stroke-linejoin: miter"/>
     <use xlink:href="#m93aca1c39e" x="176.081009" y="19.763417" style="fill: #fa9131; fill-opacity: 0.9; stroke: #fa9131; stroke-opacity: 0.9; stroke-linejoin: miter"/>
     <use xlink:href="#m93aca1c39e" x="211.622827" y="22.525877" style="fill: #fa9131; fill-opacity: 0.9; stroke: #fa9131; stroke-opacity: 0.9; stroke-linejoin: miter"/>
    </g>
   </g>
   <g id="line2d_32">
    <path d="M 33.913736 71.534386 
L 69.455554 87.751086 
L 104.997372 95.8253 
L 140.53919 77.70515 
L 176.081009 9.564545 
L 211.622827 9.927993 
" clip-path="url(#p5a2a472709)" style="fill: none; stroke: #fa8112; stroke-opacity: 0.9; stroke-width: 1.2; stroke-linecap: square"/>
    <defs>
     <path id="m65efccff86" d="M -1.75 1.75 
L 1.75 1.75 
L 1.75 -1.75 
L -1.75 -1.75 
z
" style="stroke: #fa8112; stroke-opacity: 0.9; stroke-linejoin: miter"/>
    </defs>
    <g clip-path="url(#p5a2a472709)">
     <use xlink:href="#m65efccff86" x="33.913736" y="71.534386" style="fill: #fa8112; fill-opacity: 0.9; stroke: #fa8112; stroke-opacity: 0.9; stroke-linejoin: miter"/>
     <use xlink:href="#m65efccff86" x="69.455554" y="87.751086" style="fill: #fa8112; fill-opacity: 0.9; stroke: #fa8112; stroke-opacity: 0.9; stroke-linejoin: miter"/>
     <use xlink:href="#m65efccff86" x="104.997372" y="95.8253" style="fill: #fa8112; fill-opacity: 0.9; stroke: #fa8112; stroke-opacity: 0.9; stroke-linejoin: miter"/>
     <use xlink:href="#m65efccff86" x="140.53919" y="77.70515" style="fill: #fa8112; fill-opacity: 0.9; stroke: #fa8112; stroke-opacity: 0.9; stroke-linejoin: miter"/>
     <use xlink:href="#m65efccff86" x="176.081009" y="9.564545" style="fill: #fa8112; fill-opacity: 0.9; stroke: #fa8112; stroke-opacity: 0.9; stroke-linejoin: miter"/>
     <use xlink:href="#m65efccff86" x="211.622827" y="9.927993" style="fill: #fa8112; fill-opacity: 0.9; stroke: #fa8112; stroke-opacity: 0.9; stroke-linejoin: miter"/>
    </g>
   </g>
   <g id="line2d_33">
    <path d="M 25.028281 128.855455 
L 220.508281 128.855455 
" clip-path="url(#p5a2a472709)" style="fill: none; stroke-dasharray: 0.8,1.32; stroke-dashoffset: 0; stroke: #999999; stroke-opacity: 0.7; stroke-width: 0.8"/>
   </g>
   <g id="patch_3">
    <path d="M 25.028281 134.82 
L 25.028281 3.6 
" style="fill: none; stroke: #333333; stroke-width: 0.8; stroke-linejoin: miter; stroke-linecap: square"/>
   </g>
   <g id="patch_4">
    <path d="M 220.508281 134.82 
L 220.508281 3.6 
" style="fill: none; stroke: #333333; stroke-width: 0.8; stroke-linejoin: miter; stroke-linecap: square"/>
   </g>
   <g id="patch_5">
    <path d="M 25.028281 134.82 
L 220.508281 134.82 
" style="fill: none; stroke: #333333; stroke-width: 0.8; stroke-linejoin: miter; stroke-linecap: square"/>
   </g>
   <g id="patch_6">
    <path d="M 25.028281 3.6 
L 220.508281 3.6 
" style="fill: none; stroke: #333333; stroke-width: 0.8; stroke-linejoin: miter; stroke-linecap: square"/>
   </g>
   <g id="legend_1">
    <g id="patch_7">
     <path d="M 29.228281 40.0275 
L 108.018594 40.0275 
Q 109.218594 40.0275 109.218594 38.8275 
L 109.218594 7.8 
Q 109.218594 6.6 108.018594 6.6 
L 29.228281 6.6 
Q 28.028281 6.6 28.028281 7.8 
L 28.028281 38.8275 
Q 28.028281 40.0275 29.228281 40.0275 
z
" style="fill: #ffffff; opacity: 0.9; stroke: #cccccc; stroke-linejoin: miter"/>
    </g>
    <g id="line2d_34">
     <path d="M 30.428281 11.459062 
L 34.928281 11.459062 
L 39.428281 11.459062 
" style="fill: none; stroke: #bba89c; stroke-width: 1.8; stroke-linecap: square"/>
     <defs>
      <path id="m3379269447" d="M 0 2.5 
C 0.663008 2.5 1.29895 2.236584 1.767767 1.767767 
C 2.236584 1.29895 2.5 0.663008 2.5 0 
C 2.5 -0.663008 2.236584 -1.29895 1.767767 -1.767767 
C 1.29895 -2.236584 0.663008 -2.5 0 -2.5 
C -0.663008 -2.5 -1.29895 -2.236584 -1.767767 -1.767767 
C -2.236584 -1.29895 -2.5 -0.663008 -2.5 0 
C -2.5 0.663008 -2.236584 1.29895 -1.767767 1.767767 
C -1.29895 2.236584 -0.663008 2.5 0 2.5 
z
" style="stroke: #bba89c"/>
     </defs>
     <g>
      <use xlink:href="#m3379269447" x="34.928281" y="11.459062" style="fill: #bba89c; stroke: #bba89c"/>
     </g>
    </g>
    <g id="text_16">
     <!-- Baseline -->
     <g transform="translate(41.828281 13.559062) scale(0.06 -0.06)">
      <defs>
       <path id="DejaVuSerif-42" d="M 1581 331 
L 2516 331 
Q 3078 331 3337 575 
Q 3597 819 3597 1350 
Q 3597 1878 3339 2120 
Q 3081 2363 2516 2363 
L 1581 2363 
L 1581 331 
z
M 1581 2694 
L 2375 2694 
Q 2888 2694 3123 2891 
Q 3359 3088 3359 3513 
Q 3359 3941 3123 4136 
Q 2888 4331 2375 4331 
L 1581 4331 
L 1581 2694 
z
M 353 0 
L 353 331 
L 947 331 
L 947 4331 
L 353 4331 
L 353 4666 
L 2656 4666 
Q 3363 4666 3720 4377 
Q 4078 4088 4078 3513 
Q 4078 3097 3829 2850 
Q 3581 2603 3103 2547 
Q 3697 2472 4005 2167 
Q 4313 1863 4313 1350 
Q 4313 656 3875 328 
Q 3438 0 2509 0 
L 353 0 
z
" transform="scale(0.015625)"/>
       <path id="DejaVuSerif-73" d="M 359 184 
L 359 959 
L 691 959 
Q 703 588 923 403 
Q 1144 219 1575 219 
Q 1963 219 2166 364 
Q 2369 509 2369 788 
Q 2369 1006 2220 1140 
Q 2072 1275 1594 1428 
L 1178 1569 
Q 750 1706 558 1912 
Q 366 2119 366 2438 
Q 366 2894 700 3153 
Q 1034 3413 1625 3413 
Q 1888 3413 2178 3344 
Q 2469 3275 2778 3144 
L 2778 2419 
L 2447 2419 
Q 2434 2741 2221 2922 
Q 2009 3103 1644 3103 
Q 1281 3103 1095 2975 
Q 909 2847 909 2591 
Q 909 2381 1050 2254 
Q 1191 2128 1613 1997 
L 2069 1856 
Q 2541 1709 2748 1489 
Q 2956 1269 2956 922 
Q 2956 450 2595 179 
Q 2234 -91 1600 -91 
Q 1278 -91 972 -22 
Q 666 47 359 184 
z
" transform="scale(0.015625)"/>
       <path id="DejaVuSerif-6c" d="M 1313 331 
L 1856 331 
L 1856 0 
L 184 0 
L 184 331 
L 738 331 
L 738 4531 
L 184 4531 
L 184 4863 
L 1313 4863 
L 1313 331 
z
" transform="scale(0.015625)"/>
      </defs>
      <use xlink:href="#DejaVuSerif-42"/>
      <use xlink:href="#DejaVuSerif-61" x="73.486328"/>
      <use xlink:href="#DejaVuSerif-73" x="133.105469"/>
      <use xlink:href="#DejaVuSerif-65" x="184.423828"/>
      <use xlink:href="#DejaVuSerif-6c" x="243.603516"/>
      <use xlink:href="#DejaVuSerif-69" x="275.585938"/>
      <use xlink:href="#DejaVuSerif-6e" x="307.568359"/>
      <use xlink:href="#DejaVuSerif-65" x="371.972656"/>
     </g>
    </g>
    <g id="line2d_35">
     <path d="M 30.428281 19.065937 
L 34.928281 19.065937 
L 39.428281 19.065937 
" style="fill: none; stroke: #00bd54; stroke-opacity: 0.9; stroke-width: 1.2; stroke-linecap: square"/>
     <g>
      <use xlink:href="#mf78ac06f68" x="34.928281" y="19.065937" style="fill: #00bd54; fill-opacity: 0.9; stroke: #00bd54; stroke-opacity: 0.9; stroke-linejoin: miter"/>
     </g>
    </g>
    <g id="text_17">
     <!-- $\alpha$=-0.3 -->
     <g transform="translate(41.828281 21.165937) scale(0.06 -0.06)">
      <defs>
       <path id="STIXGeneral-Italic-3b1" d="M 3514 2739 
L 2605 1069 
L 2605 954 
Q 2605 704 2662 512 
Q 2720 320 2822 320 
Q 2970 320 3149 794 
L 3251 749 
Q 3014 -58 2605 -58 
Q 2291 -58 2272 614 
Q 1709 -70 1030 -70 
Q 589 -70 381 198 
Q 173 467 173 902 
Q 173 1293 329 1673 
Q 486 2054 755 2330 
Q 973 2547 1270 2684 
Q 1568 2822 1862 2822 
Q 2246 2822 2457 2595 
Q 2669 2368 2669 2061 
L 2963 2739 
L 3514 2739 
z
M 2298 1741 
Q 2298 2688 1805 2688 
Q 1472 2688 1085 2099 
Q 698 1510 698 800 
Q 698 493 806 278 
Q 915 64 1139 64 
Q 1606 64 2195 1286 
Q 2202 1325 2230 1411 
Q 2259 1498 2278 1581 
Q 2298 1664 2298 1741 
z
" transform="scale(0.015625)"/>
       <path id="DejaVuSerif-3d" d="M 678 2894 
L 4684 2894 
L 4684 2394 
L 678 2394 
L 678 2894 
z
M 678 1619 
L 4684 1619 
L 4684 1119 
L 678 1119 
L 678 1619 
z
" transform="scale(0.015625)"/>
       <path id="DejaVuSerif-2d" d="M 281 1959 
L 1881 1959 
L 1881 1472 
L 281 1472 
L 281 1959 
z
" transform="scale(0.015625)"/>
       <path id="DejaVuSerif-2e" d="M 603 325 
Q 603 500 722 622 
Q 841 744 1019 744 
Q 1191 744 1312 622 
Q 1434 500 1434 325 
Q 1434 153 1312 31 
Q 1191 -91 1019 -91 
Q 841 -91 722 29 
Q 603 150 603 325 
z
" transform="scale(0.015625)"/>
      </defs>
      <use xlink:href="#STIXGeneral-Italic-3b1" transform="translate(0 0.78125)"/>
      <use xlink:href="#DejaVuSerif-3d" transform="translate(55.199997 0.78125)"/>
      <use xlink:href="#DejaVuSerif-2d" transform="translate(138.989059 0.78125)"/>
      <use xlink:href="#DejaVuSerif-30" transform="translate(172.778122 0.78125)"/>
      <use xlink:href="#DejaVuSerif-2e" transform="translate(236.401169 0.78125)"/>
      <use xlink:href="#DejaVuSerif-33" transform="translate(268.188278 0.78125)"/>
     </g>
    </g>
    <g id="line2d_36">
     <path d="M 30.428281 26.672812 
L 34.928281 26.672812 
L 39.428281 26.672812 
" style="fill: none; stroke: #21c56a; stroke-opacity: 0.9; stroke-width: 1.2; stroke-linecap: square"/>
     <g>
      <use xlink:href="#m2c591d5336" x="34.928281" y="26.672812" style="fill: #21c56a; fill-opacity: 0.9; stroke: #21c56a; stroke-opacity: 0.9; stroke-linejoin: miter"/>
     </g>
    </g>
    <g id="text_18">
     <!-- $\alpha$=-0.2 -->
     <g transform="translate(41.828281 28.772812) scale(0.06 -0.06)">
      <use xlink:href="#STIXGeneral-Italic-3b1" transform="translate(0 0.78125)"/>
      <use xlink:href="#DejaVuSerif-3d" transform="translate(55.199997 0.78125)"/>
      <use xlink:href="#DejaVuSerif-2d" transform="translate(138.989059 0.78125)"/>
      <use xlink:href="#DejaVuSerif-30" transform="translate(172.778122 0.78125)"/>
      <use xlink:href="#DejaVuSerif-2e" transform="translate(236.401169 0.78125)"/>
      <use xlink:href="#DejaVuSerif-32" transform="translate(265.563278 0.78125)"/>
     </g>
    </g>
    <g id="line2d_37">
     <path d="M 30.428281 34.279687 
L 34.928281 34.279687 
L 39.428281 34.279687 
" style="fill: none; stroke: #72daa0; stroke-opacity: 0.9; stroke-width: 1.2; stroke-linecap: square"/>
     <g>
      <use xlink:href="#mc9300f93ab" x="34.928281" y="34.279687" style="fill: #72daa0; fill-opacity: 0.9; stroke: #72daa0; stroke-opacity: 0.9; stroke-linejoin: miter"/>
     </g>
    </g>
    <g id="text_19">
     <!-- $\alpha$=-0.1 -->
     <g transform="translate(41.828281 36.379687) scale(0.06 -0.06)">
      <use xlink:href="#STIXGeneral-Italic-3b1" transform="translate(0 0.78125)"/>
      <use xlink:href="#DejaVuSerif-3d" transform="translate(55.199997 0.78125)"/>
      <use xlink:href="#DejaVuSerif-2d" transform="translate(138.989059 0.78125)"/>
      <use xlink:href="#DejaVuSerif-30" transform="translate(172.778122 0.78125)"/>
      <use xlink:href="#DejaVuSerif-2e" transform="translate(236.401169 0.78125)"/>
      <use xlink:href="#DejaVuSerif-31" transform="translate(268.188278 0.78125)"/>
     </g>
    </g>
    <g id="line2d_38">
     <path d="M 72.498594 11.459062 
L 76.998594 11.459062 
L 81.498594 11.459062 
" style="fill: none; stroke: #fcb97c; stroke-opacity: 0.9; stroke-width: 1.2; stroke-linecap: square"/>
     <g>
      <use xlink:href="#m20b878c74c" x="76.998594" y="11.459062" style="fill: #fcb97c; fill-opacity: 0.9; stroke: #fcb97c; stroke-opacity: 0.9; stroke-linejoin: miter"/>
     </g>
    </g>
    <g id="text_20">
     <!-- $\alpha$=+0.1 -->
     <g transform="translate(83.898594 13.559062) scale(0.06 -0.06)">
      <defs>
       <path id="DejaVuSerif-2b" d="M 2931 4013 
L 2931 2259 
L 4684 2259 
L 4684 1753 
L 2931 1753 
L 2931 0 
L 2431 0 
L 2431 1753 
L 678 1753 
L 678 2259 
L 2431 2259 
L 2431 4013 
L 2931 4013 
z
" transform="scale(0.015625)"/>
      </defs>
      <use xlink:href="#STIXGeneral-Italic-3b1" transform="translate(0 0.78125)"/>
      <use xlink:href="#DejaVuSerif-3d" transform="translate(55.199997 0.78125)"/>
      <use xlink:href="#DejaVuSerif-2b" transform="translate(138.989059 0.78125)"/>
      <use xlink:href="#DejaVuSerif-30" transform="translate(222.778122 0.78125)"/>
      <use xlink:href="#DejaVuSerif-2e" transform="translate(286.401169 0.78125)"/>
      <use xlink:href="#DejaVuSerif-31" transform="translate(318.188278 0.78125)"/>
     </g>
    </g>
    <g id="line2d_39">
     <path d="M 72.498594 19.065937 
L 76.998594 19.065937 
L 81.498594 19.065937 
" style="fill: none; stroke: #fa9131; stroke-opacity: 0.9; stroke-width: 1.2; stroke-linecap: square"/>
     <g>
      <use xlink:href="#m93aca1c39e" x="76.998594" y="19.065937" style="fill: #fa9131; fill-opacity: 0.9; stroke: #fa9131; stroke-opacity: 0.9; stroke-linejoin: miter"/>
     </g>
    </g>
    <g id="text_21">
     <!-- $\alpha$=+0.2 -->
     <g transform="translate(83.898594 21.165937) scale(0.06 -0.06)">
      <use xlink:href="#STIXGeneral-Italic-3b1" transform="translate(0 0.78125)"/>
      <use xlink:href="#DejaVuSerif-3d" transform="translate(55.199997 0.78125)"/>
      <use xlink:href="#DejaVuSerif-2b" transform="translate(138.989059 0.78125)"/>
      <use xlink:href="#DejaVuSerif-30" transform="translate(222.778122 0.78125)"/>
      <use xlink:href="#DejaVuSerif-2e" transform="translate(286.401169 0.78125)"/>
      <use xlink:href="#DejaVuSerif-32" transform="translate(315.563278 0.78125)"/>
     </g>
    </g>
    <g id="line2d_40">
     <path d="M 72.498594 26.672812 
L 76.998594 26.672812 
L 81.498594 26.672812 
" style="fill: none; stroke: #fa8112; stroke-opacity: 0.9; stroke-width: 1.2; stroke-linecap: square"/>
     <g>
      <use xlink:href="#m65efccff86" x="76.998594" y="26.672812" style="fill: #fa8112; fill-opacity: 0.9; stroke: #fa8112; stroke-opacity: 0.9; stroke-linejoin: miter"/>
     </g>
    </g>
    <g id="text_22">
     <!-- $\alpha$=+0.3 -->
     <g transform="translate(83.898594 28.772812) scale(0.06 -0.06)">
      <use xlink:href="#STIXGeneral-Italic-3b1" transform="translate(0 0.78125)"/>
      <use xlink:href="#DejaVuSerif-3d" transform="translate(55.199997 0.78125)"/>
      <use xlink:href="#DejaVuSerif-2b" transform="translate(138.989059 0.78125)"/>
      <use xlink:href="#DejaVuSerif-30" transform="translate(222.778122 0.78125)"/>
      <use xlink:href="#DejaVuSerif-2e" transform="translate(286.401169 0.78125)"/>
      <use xlink:href="#DejaVuSerif-33" transform="translate(318.188278 0.78125)"/>
     </g>
    </g>
   </g>
   <g id="line2d_41">
    <path d="M 33.913736 86.184123 
L 69.455554 96.654641 
L 104.997372 98.206197 
L 140.53919 96.198356 
L 176.081009 50.109194 
L 211.622827 49.972636 
" clip-path="url(#p5a2a472709)" style="fill: none; stroke: #bba89c; stroke-width: 1.8; stroke-linecap: square"/>
    <g clip-path="url(#p5a2a472709)">
     <use xlink:href="#m3379269447" x="33.913736" y="86.184123" style="fill: #bba89c; stroke: #bba89c"/>
     <use xlink:href="#m3379269447" x="69.455554" y="96.654641" style="fill: #bba89c; stroke: #bba89c"/>
     <use xlink:href="#m3379269447" x="104.997372" y="98.206197" style="fill: #bba89c; stroke: #bba89c"/>
     <use xlink:href="#m3379269447" x="140.53919" y="96.198356" style="fill: #bba89c; stroke: #bba89c"/>
     <use xlink:href="#m3379269447" x="176.081009" y="50.109194" style="fill: #bba89c; stroke: #bba89c"/>
     <use xlink:href="#m3379269447" x="211.622827" y="49.972636" style="fill: #bba89c; stroke: #bba89c"/>
    </g>
   </g>
  </g>
 </g>
 <defs>
  <clipPath id="p5a2a472709">
   <rect x="25.028281" y="3.6" width="195.48" height="131.22"/>
  </clipPath>
 </defs>
</svg>
